<svg version="1.1" id="Layer_1" xmlns="http://www.w3.org/2000/svg" xmlns:xlink="http://www.w3.org/1999/xlink" x="0px" y="0px"
	 width="100%" viewBox="0 0 354 360" enable-background="new 0 0 354 360" xml:space="preserve">
<path fill="#FDFDFD" opacity="1.000000" stroke="none" 
	d="
M29.000000,361.000000 
	C21.312424,361.000000 13.624847,361.000000 5.470241,360.531342 
	C5.003576,251.074738 4.958398,142.086746 5.090863,33.098965 
	C5.101449,24.389727 6.338535,15.681979 7.112093,6.762764 
	C7.411786,6.288968 7.664088,6.108507 8.375462,6.001675 
	C13.984434,5.326883 19.192720,4.086264 24.402443,4.080221 
	C123.734154,3.965012 223.066101,3.945909 322.397766,4.082605 
	C330.940857,4.094362 339.482208,5.338799 348.235809,6.115015 
	C348.710724,6.411945 348.893066,6.663345 349.001099,7.366737 
	C349.678436,10.841737 350.349030,13.923609 351.013947,17.472069 
	C351.005493,132.292435 351.002747,246.646225 351.000000,361.000000 
	C342.979095,361.000000 334.958191,361.000000 326.418091,360.533691 
	C325.613281,353.372711 325.327637,346.678101 325.071838,339.652557 
	C325.062134,338.881531 325.022614,338.441406 325.026306,337.558990 
	C324.724854,334.073181 324.380219,331.029633 324.045197,327.563599 
	C321.642761,309.298798 316.030426,292.514313 307.465942,276.689453 
	C293.775085,251.392395 274.096161,232.028656 249.227448,217.795990 
	C246.627518,216.308014 244.376877,215.031601 241.086014,217.304245 
	C201.655304,244.534790 153.087830,244.444168 113.941261,217.075150 
	C111.368576,215.276474 109.719162,215.560577 107.340752,216.876892 
	C75.204002,234.662704 52.308155,260.546570 38.966099,294.794098 
	C30.665648,316.100372 28.557508,338.364471 29.000000,361.000000 
M269.114197,88.261711 
	C268.749420,87.504387 268.384644,86.747070 268.034576,85.259651 
	C247.194809,39.297688 193.801422,16.227587 146.021011,32.540291 
	C97.549118,49.089073 69.609093,98.338539 80.120018,148.702988 
	C90.112709,196.584229 137.141724,231.567581 185.886292,226.833847 
	C193.979019,224.905624 202.071762,222.977402 210.930069,221.100815 
	C221.508804,217.662628 230.974060,212.228760 239.405807,205.014374 
	C243.897629,201.171051 248.596893,197.480652 252.573883,193.144638 
	C259.783752,185.283829 264.904541,176.138336 269.277008,166.301666 
	C278.153625,146.332047 279.271851,125.985680 274.820984,104.213776 
	C272.911011,99.102142 271.001038,93.990501 269.087830,88.976181 
	C269.087830,88.976181 269.156616,88.907265 269.114197,88.261711 
z"/>
<path fill="#979797" opacity="1.000000" stroke="none" 
	d="
M324.983124,338.001282 
	C325.022614,338.441406 325.062134,338.881531 324.773743,339.947174 
	C323.630554,347.381805 322.815277,354.190887 322.000000,361.000000 
	C224.645767,361.000000 127.291542,361.000000 29.468658,361.000000 
	C28.557508,338.364471 30.665648,316.100372 38.966099,294.794098 
	C52.308155,260.546570 75.204002,234.662704 107.340752,216.876892 
	C109.719162,215.560577 111.368576,215.276474 113.941261,217.075150 
	C153.087830,244.444168 201.655304,244.534790 241.086014,217.304245 
	C244.376877,215.031601 246.627518,216.308014 249.227448,217.795990 
	C274.096161,232.028656 293.775085,251.392395 307.465942,276.689453 
	C316.030426,292.514313 321.642761,309.298798 323.756073,327.848938 
	C323.539734,331.773804 321.046875,335.406860 324.983124,338.001282 
z"/>
<path fill="#EDEDED" opacity="1.000000" stroke="none" 
	d="
M348.024384,6.010616 
	C339.482208,5.338799 330.940857,4.094362 322.397766,4.082605 
	C223.066101,3.945909 123.734154,3.965012 24.402443,4.080221 
	C19.192720,4.086264 13.984434,5.326883 8.541392,5.694986 
	C10.204870,3.931484 12.102435,2.465742 14.000000,1.000000 
	C123.020897,1.000000 232.041794,1.000000 341.580902,1.341778 
	C344.074219,3.125909 346.049316,4.568261 348.024384,6.010616 
z"/>
<path fill="#FCFCFC" opacity="1.000000" stroke="none" 
	d="
M13.523338,1.000000 
	C12.102435,2.465742 10.204870,3.931484 8.141375,5.703916 
	C7.664088,6.108507 7.411786,6.288968 6.799472,6.934683 
	C5.252548,10.834572 3.144217,14.350296 3.138948,17.869169 
	C2.967714,132.245926 2.998942,246.622986 3.000003,361.000000 
	C2.333339,360.834320 1.265939,360.851776 1.088177,360.462708 
	C0.773569,359.774139 1.000000,358.838379 1.000000,358.006042 
	C1.000000,239.004028 1.000000,120.002007 1.000000,1.000000 
	C5.056410,1.000000 9.051543,1.000000 13.523338,1.000000 
z"/>
<path fill="#FCFCFC" opacity="1.000000" stroke="none" 
	d="
M348.235809,6.115012 
	C346.049316,4.568261 344.074219,3.125909 342.049561,1.341778 
	C346.333344,1.000000 350.666656,1.000000 355.000000,1.000000 
	C355.000000,119.500000 355.003693,238.000000 354.958527,356.499969 
	C354.957947,358.000122 354.333374,359.500000 353.500549,360.533020 
	C352.995483,245.712234 352.989960,131.358444 352.990326,16.600506 
	C351.662292,13.122114 350.328308,10.047861 348.994324,6.973608 
	C348.893066,6.663345 348.710724,6.411945 348.235809,6.115012 
z"/>
<path fill="#EDEDED" opacity="1.000000" stroke="none" 
	d="
M3.333333,361.000000 
	C2.998942,246.622986 2.967714,132.245926 3.138948,17.869169 
	C3.144217,14.350296 5.252548,10.834572 6.693029,7.145460 
	C6.338535,15.681979 5.101449,24.389727 5.090863,33.098965 
	C4.958398,142.086746 5.003576,251.074738 5.001606,360.531342 
	C4.555555,361.000000 4.111111,361.000000 3.333333,361.000000 
z"/>
<path fill="#E9E9E9" opacity="1.000000" stroke="none" 
	d="
M352.984406,17.004644 
	C352.989960,131.358444 352.995483,245.712234 353.000519,360.533020 
	C352.555542,361.000000 352.111115,361.000000 351.333313,361.000000 
	C351.002747,246.646225 351.005493,132.292435 351.341248,17.470161 
	C352.110962,17.002655 352.547699,17.003651 352.984406,17.004644 
z"/>
<path fill="#9F9F9F" opacity="1.000000" stroke="none" 
	d="
M322.399994,361.000000 
	C322.815277,354.190887 323.630554,347.381805 324.743927,340.278076 
	C325.327637,346.678101 325.613281,353.372711 325.949463,360.533691 
	C324.933319,361.000000 323.866669,361.000000 322.399994,361.000000 
z"/>
<path fill="#979797" opacity="1.000000" stroke="none" 
	d="
M274.767609,104.979439 
	C279.271851,125.985680 278.153625,146.332047 269.277008,166.301666 
	C264.904541,176.138336 259.783752,185.283829 252.573883,193.144638 
	C248.596893,197.480652 243.897629,201.171051 239.405807,205.014374 
	C230.974060,212.228760 221.508804,217.662628 210.119568,221.059799 
	C203.373871,222.240707 197.424957,223.400970 191.510605,224.716522 
	C189.310471,225.205887 187.191177,226.058731 185.035004,226.745819 
	C137.141724,231.567581 90.112709,196.584229 80.120018,148.702988 
	C69.609093,98.338539 97.549118,49.089073 146.021011,32.540291 
	C193.801422,16.227587 247.194809,39.297688 267.767090,85.829407 
	C268.051941,87.235191 268.604279,88.071228 269.156616,88.907265 
	C269.156616,88.907265 269.087830,88.976181 269.065125,89.330093 
	C270.045837,93.583572 270.908600,97.527939 272.128571,101.358521 
	C272.558594,102.708702 273.862640,103.780525 274.767609,104.979439 
z"/>
<path fill="#8D8D8D" opacity="1.000000" stroke="none" 
	d="
M185.460648,226.789841 
	C187.191177,226.058731 189.310471,225.205887 191.510605,224.716522 
	C197.424957,223.400970 203.373871,222.240707 209.736771,221.033981 
	C202.071762,222.977402 193.979019,224.905624 185.460648,226.789841 
z"/>
<path fill="#919191" opacity="1.000000" stroke="none" 
	d="
M274.794312,104.596603 
	C273.862640,103.780525 272.558594,102.708702 272.128571,101.358521 
	C270.908600,97.527939 270.045837,93.583572 269.066772,89.281433 
	C271.001038,93.990501 272.911011,99.102142 274.794312,104.596603 
z"/>
<path fill="#9F9F9F" opacity="1.000000" stroke="none" 
	d="
M325.026306,337.558990 
	C321.046875,335.406860 323.539734,331.773804 323.746429,328.271454 
	C324.380219,331.029633 324.724854,334.073181 325.026306,337.558990 
z"/>
<path fill="#EDEDED" opacity="1.000000" stroke="none" 
	d="
M352.990326,16.600506 
	C352.547699,17.003651 352.110962,17.002655 351.346924,17.003571 
	C350.349030,13.923609 349.678436,10.841737 349.001099,7.366735 
	C350.328308,10.047861 351.662292,13.122114 352.990326,16.600506 
z"/>
<path fill="#919191" opacity="1.000000" stroke="none" 
	d="
M269.135406,88.584488 
	C268.604279,88.071228 268.051941,87.235191 267.759735,86.194458 
	C268.384644,86.747070 268.749420,87.504387 269.135406,88.584488 
z"/>
</svg>